<?xml version="1.0" ?><svg height="50px" id="Слой_1" style="enable-background:new 0 0 50 50;" version="1.1" viewBox="0 0 50 50" width="50px" xml:space="preserve" xmlns="http://www.w3.org/2000/svg" xmlns:xlink="http://www.w3.org/1999/xlink"><style type="text/css">
	.st0{fill-rule:evenodd;clip-rule:evenodd;fill:#ED74A5;}
	.st1{fill:#444B54;}
	.st2{fill:#FFFFFF;}
	.st3{fill-rule:evenodd;clip-rule:evenodd;fill:#FFFFFF;}
	.st4{fill-rule:evenodd;clip-rule:evenodd;fill:#F6F7F7;}
	.st5{fill-rule:evenodd;clip-rule:evenodd;fill:#F8C9DC;}
	.st6{fill:#ED74A5;}
	.st7{fill-rule:evenodd;clip-rule:evenodd;fill:#659EC9;}
	.st8{fill-rule:evenodd;clip-rule:evenodd;fill:#FF697B;}
	.st9{fill-rule:evenodd;clip-rule:evenodd;fill:#74CAFC;}
	.st10{fill-rule:evenodd;clip-rule:evenodd;fill:#41CEB3;}
	.st11{fill-rule:evenodd;clip-rule:evenodd;fill:#FFEB6B;}
	.st12{fill-rule:evenodd;clip-rule:evenodd;fill:#387FB5;}
	.st13{fill-rule:evenodd;clip-rule:evenodd;fill:#FC913A;}
	.st14{fill-rule:evenodd;clip-rule:evenodd;fill:#3C688A;}
	.st15{fill-rule:evenodd;clip-rule:evenodd;fill:#6F4BB3;}
	.st16{fill-rule:evenodd;clip-rule:evenodd;fill:#38E8A1;}
	.st17{fill-rule:evenodd;clip-rule:evenodd;fill:#45BBFF;}
</style><g><path class="st13" d="M24.99983,1.65594c5.04745,0,9.93717,0.39434,14.51142,1.26185   c3.94332,0.7098,6.94024,3.62776,7.57118,7.57095c0.86752,4.57415,1.26186,9.46373,1.26186,14.51105   c0,5.12616-0.39434,9.9369-1.26186,14.51101c-0.63094,3.94323-3.62786,6.94006-7.57118,7.64982   c-4.57425,0.78864-9.46397,1.18298-14.51142,1.18298s-9.93717-0.39434-14.51142-1.18298   c-3.94332-0.70976-6.86138-3.7066-7.57117-7.64982c-0.86753-4.57411-1.26186-9.38485-1.26186-14.51101   c0-5.04733,0.39433-9.9369,1.26186-14.51105c0.7098-3.94318,3.62785-6.86114,7.57117-7.57095   C15.06266,2.05028,19.95238,1.65594,24.99983,1.65594L24.99983,1.65594z"/><path class="st1" d="M24.99932,50c-5.16913,0-10.14672-0.40754-14.79147-1.20633c-4.58905-0.82595-8.08586-4.35255-8.92134-8.99038   C0.42114,35.23882,0,30.39178,0,24.99864c0-5.31707,0.43337-10.30267,1.28923-14.81824   c0.83684-4.64191,4.25078-8.05575,8.9064-8.89257C14.69501,0.43471,19.68075,0,24.99932,0   c5.31993,0,10.30566,0.43471,14.82,1.29055c4.66648,0.83954,8.16465,4.34848,8.89825,8.9374   c0.20242,0.93191,0.35865,2.01733,0.50401,3.04977l0.05298,0.36815c0.12906,0.90474-0.49993,1.74292-1.40606,1.87334   c-0.88575,0.12498-1.74297-0.4972-1.87339-1.40602l-0.05298-0.3695c-0.13449-0.95772-0.27578-1.96164-0.47955-2.90578   c-0.52439-3.26577-2.96971-5.70152-6.24508-6.28974c-4.32686-0.82188-9.10474-1.23621-14.21818-1.23621   c-5.11208,0-9.88996,0.41433-14.20187,1.23349c-3.27401,0.58822-5.66363,2.97778-6.25051,6.23675   c-0.82054,4.3281-1.23489,9.10585-1.23489,14.21643c0,5.18394,0.40348,9.82992,1.23217,14.20149   c0.5991,3.32555,2.98737,5.74635,6.23828,6.33049c8.89553,1.52964,19.52724,1.53236,28.44722-0.00272   c3.25635-0.58414,5.70031-3.05114,6.21655-6.27887c0.8382-4.41776,1.24168-9.06374,1.24168-14.25039v-1.18187   c0-0.91561,0.74175-1.65734,1.65602-1.65734S50,22.90116,50,23.81677v1.18187c0,5.39586-0.4225,10.24289-1.29058,14.82095   c-0.7336,4.59164-4.23176,8.13182-8.90504,8.97136C35.1474,49.59246,30.16981,50,24.99932,50z"/><path class="st1" d="M48.18367,20.81997c-0.8219,0-1.53648-0.61403-1.64108-1.45085l-0.0788-0.63033   c-0.11275-0.90746,0.53118-1.73613,1.43866-1.85024c0.88847-0.11683,1.73482,0.5298,1.84893,1.43727l0.07879,0.63033   c0.11276,0.90746-0.53118,1.73613-1.43866,1.85024C48.32224,20.81454,48.25296,20.81997,48.18367,20.81997z"/><path class="st2" d="M24.99932,42.35179c-6.92569,0-12.95069-2.98321-15.34982-7.5993   c-0.42114-0.81237-0.10596-1.81221,0.70643-2.23333c0.81103-0.42384,1.81225-0.10324,2.23339,0.70641   c1.80682,3.4777,6.79391,5.81155,12.41,5.81155c7.21913,0,13.09197-3.82003,13.09197-8.51763   c0-0.20105-0.00136-0.27441-0.02989-0.38581c-0.20514-0.82052,0.24181-1.66549,1.03519-1.9562   c0.90205-0.33147,1.44002-1.07863,1.44002-1.99424c0-1.13297-0.99579-2.12737-2.13015-2.12737   c-0.52982,0-1.10991,0.24996-1.44274,0.6249c-0.56514,0.6412-1.53104,0.74444-2.21845,0.23366   c-2.51596-1.85024-6.06847-2.90985-9.74596-2.90985c-3.62722,0-7.14984,1.05961-9.66581,2.90985   c-0.65752,0.48905-1.5718,0.41569-2.15188-0.16302c-0.31789-0.31788-0.85179-0.69554-1.58946-0.69554   c-1.13436,0-2.12879,0.9944-2.12879,2.12737c0,0.91833,0.53797,1.66277,1.43866,1.99424   c0.85858,0.31517,1.29874,1.26881,0.9822,2.12737c-0.31653,0.85855-1.26885,1.2987-2.12607,0.98082   c-2.19128-0.80693-3.60685-2.80932-3.60685-5.10243c0-2.94789,2.49151-5.44205,5.44084-5.44205   c0.99851,0,1.96848,0.27713,2.8257,0.79878c2.96699-1.84481,6.67437-2.85008,10.58144-2.85008   c3.88398,0,7.68645,1.02429,10.64122,2.83921c0.82734-0.49992,1.80546-0.78791,2.76593-0.78791   c2.95068,0,5.4422,2.49416,5.4422,5.44205c0,1.85839-0.92922,3.52388-2.44668,4.51828   C41.27021,37.24936,34.11357,42.35179,24.99932,42.35179z"/><path class="st2" d="M24.99932,37.03472c-2.35566,0-4.71268-0.58414-6.86184-1.747   c-0.80424-0.43471-1.10311-1.43998-0.66703-2.2442c0.4388-0.8015,1.44002-1.10036,2.24562-0.66837   c3.30933,1.79319,7.25988,1.79047,10.5665,0c0.80832-0.432,1.81226-0.13313,2.24562,0.66837   c0.43608,0.80422,0.13721,1.80677-0.66703,2.2442C29.71335,36.45058,27.35634,37.03472,24.99932,37.03472z"/><path class="st2" d="M25.00068,22.00456c-0.13585,0-0.27306-0.0163-0.41027-0.05162   c-0.88575-0.22551-1.42236-1.12753-1.19549-2.01326l2.20894-8.67657c0.21464-0.84769,1.061-1.38428,1.91686-1.21719   l8.20133,1.57719c0.89798,0.17253,1.48621,1.04059,1.31368,1.93854c-0.17389,0.89795-1.03926,1.48074-1.93859,1.31364   l-6.66893-1.2824l-1.82448,7.16188C26.41353,21.50465,25.73971,22.00456,25.00068,22.00456z"/><path class="st2" d="M38.17009,18.21986c-2.43581,0-4.41652-1.98337-4.41652-4.41912c0-2.47922,1.98071-4.49519,4.41652-4.49519   c2.47928,0,4.49531,2.01598,4.49531,4.49519C42.6654,16.27724,40.69148,18.21986,38.17009,18.21986z M38.17009,12.61751   c-0.5991,0-1.10447,0.54203-1.10447,1.18323c0,0.69146,0.56107,1.1058,1.10447,1.1058c0.68605,0,1.18326-0.4646,1.18326-1.1058   C39.35335,13.1378,38.83304,12.61751,38.17009,12.61751z"/><path class="st3" d="M19.63692,29.5739c1.02526,0,1.89279-0.86751,1.89279-1.89274c0-1.02522-0.86753-1.8139-1.89279-1.8139   c-1.02526,0-1.8928,0.78868-1.8928,1.8139C17.74412,28.70638,18.61165,29.5739,19.63692,29.5739L19.63692,29.5739z"/><path class="st3" d="M30.36274,29.5739c1.02526,0,1.8928-0.86751,1.8928-1.89274c0-1.02522-0.86753-1.8139-1.8928-1.8139   c-1.02526,0-1.81392,0.78868-1.81392,1.8139C28.54882,28.70638,29.33748,29.5739,30.36274,29.5739L30.36274,29.5739z"/></g></svg>